# xmcd CD database file
#
# Track frame offsets:
#	150
#	16371
#	31045
#	48987
#	65577
#	84481
#	101379
#	116719
#	133965
#	152217
#	168885
#	187289
#
# Disc length: 2688 seconds
#
# Revision: 0
# Processed by: cddbd v1.5.2PL0 Copyright (c) Steve Scherf et al.
# Submitted via: CDex 1.70beta2
#
DISCID=9e0a7e0c
DTITLE=美川憲一 - スーパーベスト
DYEAR=1900
DGENRE=Blues
TTITLE0=柳ヶ瀬ブルース
TTITLE1=さそり座の女
TTITLE2=新潟ブルース
TTITLE3=みれん町
TTITLE4=おんなの朝
TTITLE5=お金をちょうだい
TTITLE6=ネオン化粧
TTITLE7=釧路の夜
TTITLE8=大阪の夜
TTITLE9=信濃川慕情
TTITLE10=あんた
TTITLE11=おんな町
EXTD=
EXTT0=
EXTT1=
EXTT2=
EXTT3=
EXTT4=
EXTT5=
EXTT6=
EXTT7=
EXTT8=
EXTT9=
EXTT10=
EXTT11=
PLAYORDER=
